# xmcd
#
# Track frame offsets: 
#        150
#        21067
#        39475
#        61240
#        78332
#        103820
#        124145
#        144717
#        164757
#        189587
#        212267
#        234950
#        261305
#
# Disc length: 3861 seconds
#
# Revision: 2
# Processed by: cddbd v1.5.2PL0 Copyright (c) Steve Scherf et al.
# Submitted via: ExactAudioCopy v0.95b4
#
DISCID=b20f130d
DTITLE=Silent Force - Worlds Apart (Japanese Edition)
DYEAR=2004
DGENRE=Power Metal/Rock
TTITLE0=Ride The Storm
TTITLE1=No One Lives Forever
TTITLE2=Hold On
TTITLE3=Once Again
TTITLE4=Master Of My Destiny
TTITLE5=Heroes
TTITLE6=Death Comes In Disguise
TTITLE7=Merry Mistrel
TTITLE8=Spread Your Wings
TTITLE9=Iron Hand
TTITLE10=Heart Attack
TTITLE11=Worlds Apart
TTITLE12=Say My Name (Bonus Track)
EXTD=YEAR: 2004
EXTT0=
EXTT1=
EXTT2=
EXTT3=
EXTT4=
EXTT5=
EXTT6=
EXTT7=
EXTT8=
EXTT9=
EXTT10=
EXTT11=
EXTT12=
PLAYORDER=
